<svg width="24" height="24" viewBox="0 0 24 24" fill="none" xmlns="http://www.w3.org/2000/svg" style="color:#8FDBFF">
  <path d="M7 7V4.8C7 4.36 7.36 4 7.8 4H16.2C16.64 4 17 4.36 17 4.8V7" stroke="currentColor" stroke-width="1.8" stroke-linecap="round"/>
  <path d="M6.4 9H17.6C18.93 9 20 10.07 20 11.4V15C20 15.55 19.55 16 19 16H18V19.2C18 19.64 17.64 20 17.2 20H6.8C6.36 20 6 19.64 6 19.2V16H5C4.45 16 4 15.55 4 15V11.4C4 10.07 5.07 9 6.4 9Z" stroke="currentColor" stroke-width="1.8"/>
  <path d="M8 13.4H16V20H8V13.4Z" stroke="currentColor" stroke-width="1.8"/>
  <path d="M16.6 11.8H16.61" stroke="currentColor" stroke-width="2.4" stroke-linecap="round"/>
</svg>
