<svg width="24" height="24" viewBox="0 0 24 24" fill="none" xmlns="http://www.w3.org/2000/svg" style="color:#8FDBFF">
  <path d="M5 14.2V9.8C5 9.36 5.36 9 5.8 9H8.6L12.4 5.8C12.92 5.36 13.72 5.73 13.72 6.42V17.58C13.72 18.27 12.92 18.64 12.4 18.2L8.6 15H5.8C5.36 15 5 14.64 5 14.2Z" stroke="currentColor" stroke-width="1.8" stroke-linejoin="round"/>
  <path d="M16.4 9.1C17.36 9.86 18 11.08 18 12.45C18 13.82 17.36 15.04 16.4 15.8" stroke="currentColor" stroke-width="1.8" stroke-linecap="round"/>
  <path d="M18.7 6.8C20.16 8.18 21 10.2 21 12.45C21 14.7 20.16 16.72 18.7 18.1" stroke="currentColor" stroke-width="1.8" stroke-linecap="round"/>
</svg>
